<svg xmlns="http://www.w3.org/2000/svg" viewBox="0 0 32 32" fill="none">
  <!-- Background circle -->
  <circle cx="16" cy="16" r="15" fill="url(#gradient)" />

  <!-- Left JSON bracket -->
  <path d="M9 11c-1.5 0-2.5 1-2.5 2.5v1.5c0 1.5-1 2.5-2.5 2.5 1.5 0 2.5 1 2.5 2.5v1.5c0 1.5 1 2.5 2.5 2.5"
        stroke="white" stroke-width="1.5" stroke-linecap="round" stroke-linejoin="round" fill="none"/>

  <!-- Right JSON bracket -->
  <path d="M23 11c1.5 0 2.5 1 2.5 2.5v1.5c0 1.5 1 2.5 2.5 2.5-1.5 0-2.5 1-2.5 2.5v1.5c0 1.5-1 2.5-2.5 2.5"
        stroke="white" stroke-width="1.5" stroke-linecap="round" stroke-linejoin="round" fill="none"/>

  <!-- Mapping dots -->
  <circle cx="12" cy="13" r="1.5" fill="white"/>
  <circle cx="12" cy="16" r="1.5" fill="white"/>
  <circle cx="12" cy="19" r="1.5" fill="white"/>

  <circle cx="20" cy="14.5" r="1.5" fill="white"/>
  <circle cx="20" cy="17.5" r="1.5" fill="white"/>

  <!-- Connection lines -->
  <path d="M13.5 13 C15.5 13 18 14.5 18.5 14.5" stroke="white" stroke-width="0.75" opacity="0.9"/>
  <path d="M13.5 16 C15.5 16 18 14.5 18.5 14.5" stroke="white" stroke-width="0.75" opacity="0.9"/>
  <path d="M13.5 19 C15.5 19 18 17.5 18.5 17.5" stroke="white" stroke-width="0.75" opacity="0.9"/>

  <defs>
    <linearGradient id="gradient" x1="0%" y1="0%" x2="100%" y2="100%">
      <stop offset="0%" style="stop-color:#3B82F6"/>
      <stop offset="100%" style="stop-color:#1D4ED8"/>
    </linearGradient>
  </defs>
</svg>
